<svg id="Layer_1" data-name="Layer 1" xmlns="http://www.w3.org/2000/svg" viewBox="0 0 398.28 250.59"><defs><style>.cls-1,.cls-2{fill:none;}.cls-1{stroke:#231f20;stroke-width:13px;}.cls-1,.cls-2,.cls-4,.cls-5,.cls-6,.cls-7{stroke-miterlimit:10;}.cls-2{stroke:#96979a;stroke-width:7px;}.cls-3{fill:#96979a;}.cls-4,.cls-5,.cls-6,.cls-7,.cls-8{fill:#2d388e;}.cls-4,.cls-5,.cls-6,.cls-7{stroke:#2d388e;}.cls-4{stroke-width:2px;}.cls-6{stroke-width:4px;}.cls-7{stroke-width:3px;}</style></defs><path class="cls-1" d="M680.25,620.74" transform="translate(-312.86 -386.71)"/><path class="cls-2" d="M347.32,569.23" transform="translate(-312.86 -386.71)"/><rect class="cls-3" x="194.1" width="8.23" height="125.98" rx="3.15"/><rect class="cls-3" x="179.04" y="50.57" width="8.23" height="75.41" rx="3.15"/><rect class="cls-3" x="208.63" y="50.57" width="8.23" height="75.41" rx="3.15"/><rect class="cls-3" x="224.33" y="83.49" width="7.52" height="42.49" rx="2.88"/><rect class="cls-3" x="167.05" y="83.49" width="7.52" height="42.49" rx="2.88"/><rect class="cls-3" x="151.86" y="106.62" width="7.52" height="19.35" rx="2.88"/><rect class="cls-3" x="238.9" y="106.62" width="7.52" height="19.35" rx="2.88"/><path class="cls-3" d="M342.41,551.85c1.65-.65,3.32-1.28,5-1.92.83-.31,1.67-.63,2.51-.93l2.51-.91,2.53-.89c.84-.29,1.68-.6,2.53-.88,1.69-.58,3.39-1.13,5.09-1.69.85-.28,1.69-.57,2.55-.84l2.56-.8,5.14-1.58c1.72-.51,3.45-1,5.17-1.5l2.59-.74,1.3-.36,1.3-.35c13.88-3.75,28-6.87,42.27-9.33s28.69-4.29,43.18-5.48l5.44-.42c1.81-.12,3.62-.28,5.44-.36l5.45-.28,5.45-.26,10.92-.28,1.36,0h9.55l5.46,0,5.46.16,5.46.17,2.72.08,2.73.15,10.89.65c3.63.3,7.25.6,10.87.92q21.7,2.07,43.09,6T641,540.05l5.16,1.51,2.58.77,2.57.81,5.12,1.63,1.28.41,1.27.43,2.54.87,2.53.86c.85.3,1.69.57,2.53.88l5,1.85,2.5.93,2.49,1c1.65.65,3.31,1.31,5,2l-5.25-1.19-2.62-.62-2.62-.57-5.24-1.18-5.25-1.13-2.63-.57-1.3-.28-1.32-.27-5.25-1.07-2.63-.54-2.63-.5-5.26-1c-.88-.17-1.75-.35-2.63-.5l-2.64-.47-5.26-.94c-1.76-.33-3.52-.6-5.28-.9l-5.28-.87c-1.75-.3-3.52-.54-5.28-.81l-5.29-.79c-.88-.13-1.76-.28-2.64-.4l-2.65-.35-5.3-.71q-21.21-2.73-42.51-4.23l-10.66-.68-10.67-.46-2.66-.12-2.67-.06-5.34-.12-5.34-.14c-1.78,0-3.56,0-5.34,0l-5.33,0h-4l-1.33,0-10.68.17-10.67.36c-1.78,0-3.56.16-5.34.25l-5.33.27q-21.33,1.21-42.57,3.71t-42.35,6.21l-1.33.22-1.31.24-2.64.49-5.27,1-5.27,1-2.63.51-2.63.53c-1.76.36-3.51.73-5.27,1.08s-3.5.74-5.25,1.11l-2.64.55-2.62.58Z" transform="translate(-312.86 -386.71)"/><path class="cls-4" d="M358.09,577.84c-1.36-4.32-4.08-7-8.2-8s-9.73-.27-16.72,2.28q-9.35,3.4-18.59,7.2c-.79.33-1,1.26-.32,1.65,1.24.76,2.28,1.41,2.47,1.51a3.94,3.94,0,0,1,1.41,1.39,20.5,20.5,0,0,1,1.63,3.37L331.86,617a39.82,39.82,0,0,1,1.28,3.89c.27.85-.29,2.33-.72,4.39a.92.92,0,0,0,1.3,1q4-1.65,8.08-3.23a1.06,1.06,0,0,0,.66-1.35q-3.52-9.16-7.06-18.31a1.1,1.1,0,0,1,.76-1.39c1.61-.55,3.66-1.29,6.14-2.2a45.45,45.45,0,0,0,7.72-3.67,20.91,20.91,0,0,0,5.75-4.93,14,14,0,0,0,2.85-6.23A14.84,14.84,0,0,0,358.09,577.84Zm-9,8.93a9.71,9.71,0,0,1-3.72,4,36.57,36.57,0,0,1-7.25,3.46l-3.62,1.36c-.57.22-1.15.09-1.29-.29q-2.61-6.8-5.23-13.61c-.14-.37.2-.84.76-1.07,1.29-.54,3-1.21,5.14-2a34.34,34.34,0,0,1,5.21-1.48,13.33,13.33,0,0,1,4.45-.17,7.24,7.24,0,0,1,3.44,1.4,6.71,6.71,0,0,1,2.16,3.28A6.8,6.8,0,0,1,349.11,586.77Z" transform="translate(-312.86 -386.71)"/><path class="cls-4" d="M386.58,563.25l1-.24a1.17,1.17,0,0,0,1-1.33l-1-4.17a1.17,1.17,0,0,0-1.48-.71q-11.8,3-23.47,6.5a1.16,1.16,0,0,0-.91,1.37c.5,1.65,1,3.29,1.51,4.94l0,.08a27.78,27.78,0,0,1,1,2.82l9.39,30.73a28,28,0,0,1,.74,2.81.29.29,0,0,0,0,.09q.76,2.5,1.54,5a1.09,1.09,0,0,0,1.39.67q10.5-3.18,21.1-5.84a1.09,1.09,0,0,0,.85-1.29c-.39-1.57-.77-3.14-1.16-4.71a1.12,1.12,0,0,0-1.44-.72c-.35.11-.72.21-1.13.31-4.06,1-8.11,2.12-12.16,3.27a1.11,1.11,0,0,1-1.4-.69q-1.83-6.39-3.65-12.78c-.16-.54.22-1.18,6.41-2.87q3.13-.84,6.27-1.64c-5.45,1.4-.11,0,0,0,.65-.16.29-.55.15-1.11-.41-1.55-.83-3.1-1.24-4.65-.14-.56-.38-1-1-.81l-.76.2q-5.44,1.39-10.87,2.94a1.15,1.15,0,0,1-1.46-.67q-1.76-6.28-3.53-12.58a1.15,1.15,0,0,1,.92-1.34Q379.87,565,386.58,563.25Z" transform="translate(-312.86 -386.71)"/><path class="cls-5" d="M433.51,586h0c.05.41.2,1.55.24,1.77l.08.63c.51,3.31,1,6.62,1.52,9.93l2.08-.12c.09.12-1.79.38-1.66.36,2.6-.39,5.21-.74,7.83-1.08a.42.42,0,0,0,.27-.49q-2.82-19.86-5.65-39.72c-.13-.93-.39-2.42-.44-3.08h0l-.9-6.27a.43.43,0,0,0-.48-.38c-2.93.38-5.84.78-8.76,1.21a.43.43,0,0,0-.31.5q1.28,7.85,2.56,15.67c.06.33,3.37.15,3.08,0-8.62-3.91-26.25-12.2-26.46-12.1-2.25.44-4.49.9-6.74,1.37-.5.12-2.83.66-2.7,1.22.41,1.77.81,3.54,1.22,5.31,0,0,0,0,0,0,.25.73.53,1.8.85,3.18l7.05,31c.3,1.29.52,2.47.63,3.29,0,0,0,0,0,0l1.2,5.26a.41.41,0,0,0,.46.35q3.61-.85,7.25-1.67a.41.41,0,0,0,.26-.51q-3.06-14.7-6.13-29.39c-.07-.33-.14-.67-.22-1q-1.49-6.66-2.3-9.49c-.07-.25.42,2.49.65,2.44a.27.27,0,0,1,.26.11c.64.61,19.85,8.19,24.06,10.79-1.22.08-.92-1.27-.89-1.13.2,1.11.4,2.24.62,3.41.13.7.25,1.37.37,2h0c.2,1.06.4,2.2.56,3h0c0,.27.58,2.28.65,3.08C433.59,585.71,433.55,585.86,433.51,586Z" transform="translate(-312.86 -386.71)"/><path class="cls-4" d="M443.42,547.66l.81,5.82a.72.72,0,0,0,.88.52c1.95-.31,6.69-.92,7.27-1,1.76-.21,3.51-.42,5.27-.61a.72.72,0,0,1,.85.55q1.86,16.9,3.7,33.83c.09.8.14,1.48.15,2.07v0c.22,2.05.45,4.1.67,6.14a.69.69,0,0,0,.79.56q3.48-.37,7-.7a.68.68,0,0,0,.66-.7q-.27-3-.53-5.91a.13.13,0,0,1,0-.06,18.78,18.78,0,0,1-.33-2.28l-3.09-34.09a.73.73,0,0,1,.73-.71l5.33-.44c.5-.05,5.12-.38,7-.47a.73.73,0,0,0,.76-.69c-.12-1.88-.24-3.76-.35-5.64a.74.74,0,0,0-.84-.59q-18.06,1.16-36,3.61A.74.74,0,0,0,443.42,547.66Z" transform="translate(-312.86 -386.71)"/><path class="cls-5" d="M525.47,548.65c0-2.07.09-4.15.14-6.22-3.28-.08-6.55-.12-9.83-.13,0,2.31,0,4.63,0,6.94,0,.67,0,1.45,0,2.34,0,3.33,0,6.66,0,10q-9.07,0-18.16.27l-.36-10c0-1.2,0-2.17,0-2.93q-.12-3.18-.22-6.36c-3.25.11-6.49.26-9.73.43.12,2.19.23,4.39.35,6.58.08.71.15,1.61.21,2.69l1.71,32.08c.06,1,.08,1.88.08,2.61l.36,6.67c2.91-.16,5.83-.29,8.74-.39l-.21-6.24c-.08-.74-.14-1.76-.19-3q-.23-6.72-.44-13.44,8.91-.31,17.83-.28l-.06,13.45c0,.85,0,1.61-.06,2.26,0,2.34,0,4.68,0,7,2.94,0,5.89,0,8.83.11q.07-3,.14-6l0-.76a22.3,22.3,0,0,1,0-2.49q.36-16.07.73-32.12C525.33,550.47,525.38,549.45,525.47,548.65Z" transform="translate(-312.86 -386.71)"/><path class="cls-6" d="M556.9,593.28a34,34,0,0,1-9.55-2.13A20.88,20.88,0,0,1,534.78,578a31.36,31.36,0,0,1-1.43-11.07,26.71,26.71,0,0,1,3.78-13.57,21.42,21.42,0,0,1,10.31-8.52,31.62,31.62,0,0,1,14.75-1.94,33,33,0,0,1,14.46,4.34,19.67,19.67,0,0,1,8.27,9.82h0a26.8,26.8,0,0,1,1.13,13.55,29,29,0,0,1-5.24,13.5,22.21,22.21,0,0,1-10.4,7.7A31.52,31.52,0,0,1,556.9,593.28Zm4.79-44.69A25.21,25.21,0,0,0,550,550.06a15.82,15.82,0,0,0-7.59,6.23,21.56,21.56,0,0,0-3.07,10.82,25.38,25.38,0,0,0,1,9,15.35,15.35,0,0,0,3.47,6,15.74,15.74,0,0,0,5.62,3.68,28.49,28.49,0,0,0,7.95,1.75,25.71,25.71,0,0,0,11.07-1.2,16,16,0,0,0,7.63-5.7,23.31,23.31,0,0,0,4-10.9,21.8,21.8,0,0,0-1-10.85h0a13.9,13.9,0,0,0-5.9-6.92A26.32,26.32,0,0,0,561.69,548.59Z" transform="translate(-312.86 -386.71)"/><path class="cls-6" d="M630.25,557q-.74,3.19-1.46,6.39-.15.84-.39,1.92L623.66,586c-.19.82.31-1.63.12-.91a14.63,14.63,0,0,1-.92,2.88,16.12,16.12,0,0,1-3.29,4.86,8.59,8.59,0,0,1-4,1.73,13,13,0,0,1-4.89-.17,19.28,19.28,0,0,1-4.77-1.52,9.15,9.15,0,0,1-3.05-2.41,8.1,8.1,0,0,1-1.6-3.84,14.4,14.4,0,0,1,0-4.27c.05-.43.12-.88.2-1.34l3.69-20.47c.11-.62.22-1.17.33-1.67l1.2-6.7q-4-.7-8-1.35l-5.25,32.4a20.2,20.2,0,0,0,.07,5.38,12.42,12.42,0,0,0,2.33,5.4,12.16,12.16,0,0,0,2.85,2.73,15.49,15.49,0,0,0,2.08,1.2,32.55,32.55,0,0,0,7.7,2.42,30.41,30.41,0,0,0,6.73.69,18.26,18.26,0,0,0,5.09-.82l.1,0a12.6,12.6,0,0,0,4-2.16,14,14,0,0,0,3.23-3.88,19.65,19.65,0,0,0,1.75-4.09q3.84-15.73,7.67-31.47Q633.67,557.75,630.25,557Z" transform="translate(-312.86 -386.71)"/><path class="cls-7" d="M666.27,596.91a15.76,15.76,0,0,0-2.53-5.94,47.17,47.17,0,0,0-6.13-7,45.5,45.5,0,0,1-5.1-5.49,11.25,11.25,0,0,1-2.06-4.24,8.53,8.53,0,0,1,.39-4.51,6.9,6.9,0,0,1,2.55-3.58,7.5,7.5,0,0,1,4.14-1.36,13.05,13.05,0,0,1,5,.87,15.31,15.31,0,0,1,4.66,2.49,8,8,0,0,1,2.4,3.59,10.27,10.27,0,0,1,.39,1.59.82.82,0,0,0,1.55.2l2.16-5.63a.79.79,0,0,0-.37-.94c-.91-.53-1.75-1-2.53-1.37a61.57,61.57,0,0,0-5.9-2.53,26.61,26.61,0,0,0-10-1.82,13.77,13.77,0,0,0-7.71,2.3,11.42,11.42,0,0,0-4.28,6.07,10.16,10.16,0,0,0-.25,5.38,15.58,15.58,0,0,0,2.63,5.52,46.46,46.46,0,0,0,5.85,6.43,46.26,46.26,0,0,1,5.6,6.13,10.93,10.93,0,0,1,2,4.52,9.4,9.4,0,0,1-.62,4.69c-1,2.67-2.51,4.4-4.55,5.22s-4.47.69-7.33-.35a14.51,14.51,0,0,1-4.83-2.67,8.25,8.25,0,0,1-2.41-3.75,9.81,9.81,0,0,1-.32-1.32.73.73,0,0,0-1.42-.13q-.91,2.85-1.81,5.7a.78.78,0,0,0,.35.9A61.19,61.19,0,0,0,644.5,610a31.52,31.52,0,0,0,6.74,1.69,15.43,15.43,0,0,0,5.92-.29,11.5,11.5,0,0,0,4.87-2.71,14.61,14.61,0,0,0,3.54-5.56A11.2,11.2,0,0,0,666.27,596.91Z" transform="translate(-312.86 -386.71)"/><path class="cls-4" d="M705.85,585.59l.95.41a1.19,1.19,0,0,0,1.63-.45l1.64-4a1.18,1.18,0,0,0-.78-1.45q-11.35-4.67-22.88-8.75a1.16,1.16,0,0,0-1.55.56l-1.72,4.87a.29.29,0,0,0,0,.09,28.91,28.91,0,0,1-.87,2.86l-10.67,30.3c-.39,1.09-.74,2-1.08,2.7l0,.08q-.87,2.48-1.75,4.95a1.1,1.1,0,0,0,.74,1.37Q679.81,622.83,690,627a1.12,1.12,0,0,0,1.47-.53c.61-1.49,1.23-3,1.85-4.48a1.12,1.12,0,0,0-.74-1.44c-.35-.12-.71-.26-1.1-.42q-5.88-2.4-11.81-4.62a1.12,1.12,0,0,1-.73-1.39l4.65-12.46c.2-.53.87-.81,6.89,1.52q3,1.18,6.08,2.41c-5.26-2.12-.1-.05,0,0,.62.27.57-.26.78-.8.59-1.49,1.18-3,1.76-4.48.22-.54.29-1-.35-1.27l-.74-.29q-5.26-2.12-10.56-4.11a1.15,1.15,0,0,1-.78-1.41L691.3,581a1.17,1.17,0,0,1,1.55-.54Q699.38,582.94,705.85,585.59Z" transform="translate(-312.86 -386.71)"/><path class="cls-8" d="M418.74,632.28q-2.4-7.83-4.82-15.68,3.56-1.1,7.12-2.1a33,33,0,0,1,5.35-1.22A6.29,6.29,0,0,1,430,614a4.16,4.16,0,0,1,2.06,2.77,4.23,4.23,0,0,1-.11,2.65,5.37,5.37,0,0,1-1.43,2,8,8,0,0,1-2.05,1.34,37.44,37.44,0,0,1-4.41,1.46l-2.81.81L423,631C421.55,631.43,420.15,631.85,418.74,632.28Zm.39-14.34,1.31,4.46,2.37-.68a16.41,16.41,0,0,0,3.38-1.21,3,3,0,0,0,1.15-1.15,1.85,1.85,0,0,0-.91-2.6,3.63,3.63,0,0,0-2-.22,27.11,27.11,0,0,0-3.2.78Z" transform="translate(-312.86 -386.71)"/><path class="cls-8" d="M438.31,626.94q-1.92-8-3.82-16,4.71-1.12,9.45-2.12a21.13,21.13,0,0,1,5.29-.61,5.11,5.11,0,0,1,2.88,1,3.91,3.91,0,0,1,.53,5.64,8.59,8.59,0,0,1-4,2.32,10.33,10.33,0,0,1,2.61.89,18.24,18.24,0,0,1,3,2.15c1.07.88,2.13,1.78,3.18,2.68-1.71.3-3.43.61-5.14.94-1.26-1-2.53-1.93-3.81-2.88a24.28,24.28,0,0,0-2.78-1.89,3.74,3.74,0,0,0-1.46-.39,9.71,9.71,0,0,0-2.23.3l-.89.2q.75,3.35,1.51,6.68Zm2.19-10.23c1.08-.25,2.17-.49,3.25-.72a24.6,24.6,0,0,0,3.93-1,2.5,2.5,0,0,0,1.1-.93,1.7,1.7,0,0,0,.21-1.3,1.63,1.63,0,0,0-.85-1.19,3.24,3.24,0,0,0-1.81-.29c-.37,0-1.46.24-3.27.62-1.16.25-2.32.5-3.48.77C439.89,614,440.19,615.35,440.5,616.71Z" transform="translate(-312.86 -386.71)"/><path class="cls-8" d="M457.47,614.74a8,8,0,0,1,.3-4.32,7.82,7.82,0,0,1,1.71-2.56,9.18,9.18,0,0,1,2.66-1.92,16.23,16.23,0,0,1,4.75-1.35,12.59,12.59,0,0,1,8.23,1.24,7.28,7.28,0,0,1,3.63,5.89,7.53,7.53,0,0,1-2.2,6.5,12.4,12.4,0,0,1-7.28,3.17,12.61,12.61,0,0,1-7.93-1.06A7.45,7.45,0,0,1,457.47,614.74Zm4.54-.86a5.21,5.21,0,0,0,2.35,3.91,7.44,7.44,0,0,0,8.61-1.17,5.36,5.36,0,0,0,1.18-4.46,5.06,5.06,0,0,0-2.18-4,6.77,6.77,0,0,0-4.64-.8,6.85,6.85,0,0,0-4.28,2A5.08,5.08,0,0,0,462,613.88Z" transform="translate(-312.86 -386.71)"/><path class="cls-8" d="M483,619.53q-.76-8.17-1.54-16.34c2.44-.23,4.89-.43,7.33-.61a33.58,33.58,0,0,1,5.45-.1,6.31,6.31,0,0,1,3.33,1.44,4.62,4.62,0,0,1,.8,5.71,5.33,5.33,0,0,1-1.8,1.7,7.74,7.74,0,0,1-2.26.9,36.48,36.48,0,0,1-4.58.53l-2.89.22c.17,2.06.33,4.11.5,6.17C485.88,619.26,484.43,619.39,483,619.53Zm3.25-14,.37,4.64,2.45-.19a15.66,15.66,0,0,0,3.51-.49,3,3,0,0,0,1.35-.89,1.79,1.79,0,0,0,.44-1.3,1.81,1.81,0,0,0-.8-1.44,3.61,3.61,0,0,0-1.87-.61,27,27,0,0,0-3.26.11Z" transform="translate(-312.86 -386.71)"/><path class="cls-8" d="M503.05,618.28l-.51-16.4q8.4-.27,16.81-.1l-.06,2.77q-6.06-.1-12.13,0c0,1.21,0,2.43.07,3.64q5.58-.1,11.16,0c0,.93,0,1.85,0,2.77q-5.54-.09-11.07,0c0,1.49.06,3,.08,4.47q6.07-.1,12.15,0l-.06,2.76Q511.25,618,503.05,618.28Z" transform="translate(-312.86 -386.71)"/><path class="cls-8" d="M523.15,618.29q.26-8.2.52-16.4,4.82.15,9.63.44a21.65,21.65,0,0,1,5.24.8,5.14,5.14,0,0,1,2.49,1.78,3.9,3.9,0,0,1-1,5.58,8.55,8.55,0,0,1-4.48,1.18,10.51,10.51,0,0,1,2.28,1.54,19.3,19.3,0,0,1,2.29,2.86c.79,1.14,1.58,2.28,2.35,3.42-1.73-.16-3.46-.31-5.19-.44-.95-1.26-1.92-2.53-2.9-3.78a23.91,23.91,0,0,0-2.18-2.56,3.72,3.72,0,0,0-1.29-.76,10,10,0,0,0-2.23-.3l-.9,0c-.1,2.28-.21,4.56-.31,6.84C526.05,618.39,524.6,618.33,523.15,618.29Zm4.78-9.29,3.31.16a24.81,24.81,0,0,0,4,.05,2.61,2.61,0,0,0,1.31-.6,1.81,1.81,0,0,0,.54-1.2,1.67,1.67,0,0,0-.51-1.38,3.13,3.13,0,0,0-1.66-.75c-.36-.07-1.46-.16-3.3-.26l-3.54-.18C528.06,606.22,528,607.61,527.93,609Z" transform="translate(-312.86 -386.71)"/><path class="cls-8" d="M549.68,620.24q.78-6.78,1.57-13.54c-2.22-.26-4.43-.49-6.65-.7l.27-2.77q9,.85,17.91,2.2c-.14.91-.28,1.83-.41,2.74-2.2-.33-4.41-.64-6.61-.92q-.87,6.76-1.75,13.52C552.57,620.58,551.13,620.41,549.68,620.24Z" transform="translate(-312.86 -386.71)"/><path class="cls-8" d="M563,622.06q1.29-8.1,2.57-16.2c1.51.23,3,.48,4.53.74l-2.79,16.17Z" transform="translate(-312.86 -386.71)"/><path class="cls-8" d="M571.41,623.51q1.5-8.07,3-16.13,8.31,1.53,16.53,3.5c-.21.9-.43,1.8-.64,2.7q-5.94-1.43-11.92-2.61c-.23,1.19-.47,2.37-.71,3.56q5.51,1.11,11,2.39l-.63,2.69q-5.43-1.27-10.88-2.37c-.29,1.46-.58,2.92-.88,4.38,4,.8,8,1.67,11.94,2.62-.21.9-.43,1.8-.64,2.69Q579.5,625,571.41,623.51Z" transform="translate(-312.86 -386.71)"/><path class="cls-8" d="M591.35,622.37c1.43.25,2.86.5,4.29.77a3.79,3.79,0,0,0,.92,2.71,6,6,0,0,0,2.9,1.58,6.35,6.35,0,0,0,3.29.23,1.92,1.92,0,0,0,1.49-1.22,1.27,1.27,0,0,0-.17-1.08,4,4,0,0,0-1.35-1.13c-.47-.27-1.55-.83-3.26-1.65A15.09,15.09,0,0,1,595,619.7a3.92,3.92,0,0,1-1.19-3.71,3.37,3.37,0,0,1,1.52-2,6.15,6.15,0,0,1,3.17-.9,14.91,14.91,0,0,1,4.49.62,12,12,0,0,1,5.85,3.1,4.33,4.33,0,0,1,1.13,4.11l-4.41-1.16a2.66,2.66,0,0,0-.7-2.09,5.87,5.87,0,0,0-2.65-1.33,6.69,6.69,0,0,0-3.17-.24,1.14,1.14,0,0,0-1,.79,1.17,1.17,0,0,0,.4,1.14,15.34,15.34,0,0,0,3.73,2.16,25.3,25.3,0,0,1,4.37,2.49,5.8,5.8,0,0,1,1.89,2.31,3.94,3.94,0,0,1,.08,2.76,4,4,0,0,1-1.78,2.21,6.19,6.19,0,0,1-3.35.91,16.53,16.53,0,0,1-4.72-.73,12.07,12.07,0,0,1-5.76-3A6,6,0,0,1,591.35,622.37Z" transform="translate(-312.86 -386.71)"/><path class="cls-3" d="M408.79,621.17l1.29,5q-3.81.78-7.6,1.64l-1.12.24-1.12.26-2.23.53-4.46,1L389.09,631c-1.48.38-3,.73-4.45,1.13l-4.44,1.17c-.75.19-1.49.4-2.22.6l-2.22.61c-3,.79-5.91,1.67-8.89,2.48,2.79-1.3,5.59-2.59,8.43-3.78l2.13-.9c.71-.3,1.42-.61,2.13-.89,1.43-.58,2.87-1.14,4.3-1.71.72-.28,1.43-.57,2.15-.84l2.17-.8,4.34-1.61,4.38-1.5,2.19-.75,1.1-.37,1.1-.35Q405,622.3,408.79,621.17Z" transform="translate(-312.86 -386.71)"/><path class="cls-3" d="M615.21,621.46l-1.29,5q3.81.79,7.6,1.64l1.12.25,1.12.25,2.23.53c1.48.35,3,.71,4.46,1.05l4.46,1.12c1.48.37,3,.72,4.45,1.13l4.44,1.17c.75.18,1.49.39,2.22.6l2.22.61c3,.78,5.91,1.67,8.89,2.47-2.79-1.29-5.59-2.58-8.43-3.77l-2.13-.9c-.71-.3-1.42-.61-2.13-.89-1.43-.58-2.87-1.14-4.3-1.71-.72-.28-1.43-.58-2.15-.84l-2.17-.81-4.34-1.6-4.38-1.51-2.19-.75-1.1-.37-1.1-.35Q619,622.59,615.21,621.46Z" transform="translate(-312.86 -386.71)"/></svg>